{"title":"Una Storia Vera - The Straight Story (1999) - HDMux - 720p - ENG","uid":9055849,"size":5069834581,"categoryP":"video","categoryS":"hd___movies","magnet":"?xt=urn:btih:43a4c7401f300d7fcb11d0c53e757e689ce9a060&amp;dn=Una+Storia+Vera+-+The+Straight+Story+%281999%29+-+HDMux+-+720p+-+ENG&amp;tr=udp%3A%2F%2Ftracker.openbittorrent.com%3A80&amp;tr=udp%3A%2F%2Fopen.demonii.com%3A1337&amp;tr=udp%3A%2F%2Ftracker.coppersurfer.tk%3A6969&amp;tr=udp%3A%2F%2Fexodus.desync.com%3A6969","seeders":16,"leechers":5,"uploader":"OrgazmoITA","files":1,"time":1381951686,"description":"General\nUnique ID: 106170172991222761725263856595950011501 (0x4FDFA1AC5F8C8EFF3F50B0A79F12846D)\nComplete name: /Users/verystrangefish/Desktop/Everybody/_VSF_HDMux/Una.Storia.Vera.The.Straight.Story.1999.HDMux.720p.ENG.ITA.AC3.mkv\nFormat: Matroska\nFormat version: Version 4 / Version 2\nFile size: 4.72 GiB\nDuration: 1h 52mn\nOverall bit rate: 6 027 Kbps\nEncoded date: UTC 2013-10-16 17:12:01\nWriting application: mkvmerge v6.2.0 ('Promised Land') built on Apr 28 2013 18:50:30\nWriting library: libebml v1.3.0 + libmatroska v1.4.0\n\nVideo\nID: 1\nFormat: AVC\nFormat/Info: Advanced Video Codec\nFormat profile: &lt;a class=&quot;__cf_email__&quot; href=&quot;/cdn-cgi/l/email-protection&quot; data-cfemail=&quot;4008292728000c746e71&quot;&gt;[email&amp;#160;protected]&lt;/a&gt;&lt;script cf-hash='f9e31' type=&quot;text/javascript&quot;&gt;\n/* &lt;![CDATA[ */!function(){try{var t=&quot;currentScript&quot;in document?document.currentScript:function(){for(var t=document.getElementsByTagName(&quot;script&quot;),e=t.length;e--;)if(t[e].getAttribute(&quot;cf-hash&quot;))return t[e]}();if(t&amp;&amp;t.previousSibling){var e,r,n,i,c=t.previousSibling,a=c.getAttribute(&quot;data-cfemail&quot;);if(a){for(e=&quot;&quot;,r=parseInt(a.substr(0,2),16),n=2;a.length-n;n+=2)i=parseInt(a.substr(n,2),16)^r,e+=String.fromCharCode(i);e=document.createTextNode(e),c.parentNode.replaceChild(e,c)}}}catch(u){}}();/* ]]&gt; */&lt;/script&gt;\nFormat settings, CABAC: Yes\nFormat settings, ReFrames: 5 frames\nCodec ID: V_MPEG4/ISO/AVC\nDuration: 1h 52mn\nBit rate: 4 938 Kbps\nWidth: 1 280 pixels\nHeight: 544 pixels\nDisplay aspect ratio: 2.35:1\nFrame rate mode: Constant\nFrame rate: 23.976 fps\nColor space: YUV\nChroma subsampling: 4:2:0\nBit depth: 8 bits\nScan type: Progressive\nBits/(Pixel*Frame): 0.296\nStream size: 3.78 GiB (80%)\nTitle: Una Storia Vera (David Lynch) 1999\nWriting library: x264 core 125 r2200 999b753\nEncoding settings: cabac=1 // deblock=1:0:0 / analyse=0x3:0x113 / me=umh / subme=8 / psy=1 / psy_rd=1.00:0.00 // me_range=16 / chroma_me=1 / trellis=1 / 8x8dct=1 / cqm=0 / deadzone=21,11 / fast_pskip=1 / chroma_qp_offset=-2 / threads=12 / lookahead_threads=2 / sliced_threads=0 / nr=0 / decimate=1 / interlaced=0 / bluray_compat=0 / constrained_intra=0 / bframes=3 / b_pyramid=2 / b_adapt=2 / b_bias=0 / direct=3 / weightb=1 / open_gop=0 / weightp=2 / keyint=240 / keyint_min=24 / scenecut=40 / intra_refresh=0 / rc_lookahead=50 / rc=2pass / mbtree=1 / bitrate=4938 / ratetol=1.0 / qcomp=0.60 / qpmin=0 / qpmax=69 / qpstep=4 / cplxblur=20.0 / qblur=0.5 / ip_ratio=1.40 / aq=1:1.00\nLanguage: English\nDefault: Yes\nForced: No\n\nAudio #1\nID: 2\nFormat: AC-3\nFormat/Info: Audio Coding 3\nMode extension: CM (complete main)\nFormat settings, Endianness: Big\nCodec ID: A_AC3\nDuration: 1h 52mn\nBit rate mode: Constant\nBit rate: 448 Kbps\nChannel count: 2 channels\nChannel positions: Front: L R\nSampling rate: 48.0 KHz\nBit depth: 16 bits\nCompression mode: Lossy\nStream size: 359 MiB (7%)\nTitle: Italiano\nLanguage: Italian\nDefault: Yes\nForced: No\n\nAudio #2\nID: 3\nFormat: AC-3\nFormat/Info: Audio Coding 3\nMode extension: CM (complete main)\nFormat settings, Endianness: Big\nCodec ID: A_AC3\nDuration: 1h 52mn\nBit rate mode: Constant\nBit rate: 640 Kbps\nChannel count: 6 channels\nChannel positions: Front: L C R, Side: L R, LFE\nSampling rate: 48.0 KHz\nBit depth: 16 bits\nCompression mode: Lossy\nStream size: 513 MiB (11%)\nTitle: English\nLanguage: English\nDefault: No\nForced: No\n\nText #1\nID: 4\nFormat: UTF-8\nCodec ID: S_TEXT/UTF8\nCodec ID/Info: UTF-8 Plain Text\nTitle: Italiano\nLanguage: Italian\nDefault: No\nForced: No\n\nText #2\nID: 5\nFormat: UTF-8\nCodec ID: S_TEXT/UTF8\nCodec ID/Info: UTF-8 Plain Text\nTitle: English\nLanguage: English\nDefault: No\nForced: No\n\nText #3\nID: 6\nFormat: UTF-8\nCodec ID: S_TEXT/UTF8\nCodec ID/Info: UTF-8 Plain Text\nTitle: Francais\nLanguage: French\nDefault: No\nForced: No\n\nText #4\nID: 7\nFormat: UTF-8\nCodec ID: S_TEXT/UTF8\nCodec ID/Info: UTF-8 Plain Text\nTitle: Espanol\nLanguage: Spanish\nDefault: No\nForced: No\n\nText #5\nID: 8\nFormat: UTF-8\nCodec ID: S_TEXT/UTF8\nCodec ID/Info: UTF-8 Plain Text\nTitle: Czech\nLanguage: Czech\nDefault: No\nForced: No\n\nText #6\nID: 9\nFormat: UTF-8\nCodec ID: S_TEXT/UTF8\nCodec ID/Info: UTF-8 Plain Text\nTitle: Finnish\nLanguage: Finnish\nDefault: No\nForced: No\n\nText #7\nID: 10\nFormat: UTF-8\nCodec ID: S_TEXT/UTF8\nCodec ID/Info: UTF-8 Plain Text\nTitle: Swedish\nLanguage: Swedish\nDefault: No\nForced: No\n\nText #8\nID: 11\nFormat: UTF-8\nCodec ID: S_TEXT/UTF8\nCodec ID/Info: UTF-8 Plain Text\nTitle: Portuguese\nLanguage: Portuguese\nDefault: No\nForced: No\n\nMenu\n00:00:00.000: en:00:00:00.000\n00:05:05.555: en:00:05:05.555\n00:08:23.503: en:00:08:23.503\n00:13:48.870: en:00:13:48.870\n00:18:04.083: en:00:18:04.083\n00:25:32.156: en:00:25:32.156\n00:32:31.158: en:00:32:31.158\n00:35:13.028: en:00:35:13.028\n00:37:25.076: en:00:37:25.076\n00:44:02.682: en:00:44:02.682\n00:51:57.114: en:00:51:57.114\n00:54:37.357: en:00:54:37.357\n00:56:43.233: en:00:56:43.233\n01:01:01.491: en:01:01:01.491\n01:07:15.031: en:01:07:15.031\n01:10:19.674: en:01:10:19.674\n01:15:27.231: en:01:15:27.231\n01:22:26.900: en:01:22:26.900\n01:27:24.072: en:01:27:24.072\n01:30:05.233: en:01:30:05.233\n01:31:23.311: en:01:31:23.311\n01:37:20.043: en:01:37:20.043\n01:40:23.434: en:01:40:23.434\n01:44:39.190: en:01:44:39.190","torrent":{"xt":"urn:btih:43a4c7401f300d7fcb11d0c53e757e689ce9a060","amp;dn":"Una+Storia+Vera+-+The+Straight+Story+%281999%29+-+HDMux+-+720p+-+ENG","amp;tr":["udp%3A%2F%2Ftracker.openbittorrent.com%3A80","udp%3A%2F%2Fopen.demonii.com%3A1337","udp%3A%2F%2Ftracker.coppersurfer.tk%3A6969","udp%3A%2F%2Fexodus.desync.com%3A6969"],"infoHash":"43a4c7401f300d7fcb11d0c53e757e689ce9a060","infoHashBuffer":{"type":"Buffer","data":[67,164,199,64,31,48,13,127,203,17,208,197,62,117,126,104,156,233,160,96]},"announce":[],"urlList":[]}}